<svg xmlns="http://www.w3.org/2000/svg" xmlns:xlink="http://www.w3.org/1999/xlink" viewBox="0 0 512 102.4">
	<defs>
		<path id="a" d="M3.2 94.4 0 9.8a5.1 5.1 0 0 1 4.8-5.3l72-4.5a5.1 5.1 0 0 1 5.4 5.1v92.2a5.1 5.1 0 0 1-5.4 5l-68.7-3a5.1 5.1 0 0 1-5-5z" />
	</defs>
	<path fill="#333" d="M136.4 81a45 45 0 0 1-12.6-1.7c-4-1.2-7.4-2.8-10.1-4.9l4.1-9a32 32 0 0 0 18.8 5.7c3.6 0 6.3-.5 8.3-1.7 2-1.2 2.9-2.8 2.9-4.9 0-1.8-.9-3.3-2.7-4.3-1.8-1-5-2-9.4-3-5.1-1.1-9.2-2.4-12.2-3.8-3-1.5-5.2-3.3-6.6-5.5-1.4-2.1-2.1-4.8-2.1-8 0-3.5 1-6.6 2.9-9.3 2-2.7 4.6-4.9 8.1-6.4 3.5-1.6 7.6-2.4 12.2-2.4 4 0 8 .6 11.8 1.8 3.8 1.2 6.8 2.8 9 4.9l-4 9a27.9 27.9 0 0 0-16.8-5.8c-3.3 0-6 .7-7.8 2a6 6 0 0 0-2.9 5.3c0 1.3.4 2.3 1.1 3.2.7.8 2 1.6 3.7 2.2s4.2 1.4 7.3 2a40.7 40.7 0 0 1 16 6.4c3.3 2.6 5 6.1 5 10.6 0 5.5-2.2 9.8-6.4 13a29 29 0 0 1-17.6 4.7zM190 72a33 33 0 0 0 3.9-.3l-.7 9a34.7 34.7 0 0 1-4.7.4c-6.1 0-10.6-1.4-13.4-4-2.8-2.7-4.2-6.8-4.2-12.2V49.4h-7.6V40h7.6V28.3h12.4v11.8h10v9.3h-10v15.3c0 4.8 2.2 7.2 6.7 7.2zm28.7 9c-4.2 0-8-.8-11.2-2.5a18 18 0 0 1-7.5-7.3c-1.7-3.1-2.6-6.8-2.6-11.1s.9-8 2.6-11.1c1.8-3.1 4.3-5.6 7.5-7.2 3.2-1.7 7-2.6 11.2-2.6 4.3 0 8 .9 11.2 2.6 3.3 1.6 5.8 4 7.5 7.2 1.8 3.1 2.6 6.8 2.6 11.1s-.8 8-2.6 11.1a18 18 0 0 1-7.5 7.3c-3.2 1.7-7 2.6-11.2 2.6zm0-9.3c6 0 9-3.9 9-11.6 0-3.9-.7-6.8-2.3-8.7a8.1 8.1 0 0 0-6.7-2.8c-6 0-9 3.8-9 11.5s3 11.6 9 11.6zm55.6-22.3-7 .7c-3.4.3-5.9 1.3-7.3 3a9.4 9.4 0 0 0-2.1 6.3v21h-12.4V40.1h11.9v6.8c2-4.6 6.2-7.2 12.5-7.6l3.6-.3zm36-9.1h12L298.1 95h-12.5l7.7-17-16.6-38h12.9l10.1 25.6zm40.7-1c3.5 0 6.6.8 9.3 2.5a17 17 0 0 1 6.2 7.2 25 25 0 0 1 2.3 11c0 4-.8 7.8-2.3 11a17.7 17.7 0 0 1-6.3 7.4A16.4 16.4 0 0 1 351 81a16 16 0 0 1-7.5-1.8c-2.3-1.2-4-2.8-5.2-4.9v6h-12.2V22.6h12.4v22.9c1.2-2 2.9-3.6 5-4.7s4.8-1.7 7.5-1.7zm-3.6 32.4a8 8 0 0 0 6.7-3.1c1.6-2 2.4-5 2.4-8.7a13 13 0 0 0-2.4-8.4c-1.6-1.9-3.8-2.9-6.7-2.9a8 8 0 0 0-6.7 3c-1.6 2-2.4 4.8-2.4 8.5s.8 6.6 2.4 8.6a8 8 0 0 0 6.7 3zm48.3 9.4c-4.3 0-8-.9-11.3-2.6A18 18 0 0 1 377 71c-1.8-3.1-2.6-6.8-2.6-11.1s.8-8 2.6-11.1c1.7-3.1 4.2-5.6 7.4-7.2 3.3-1.7 7-2.6 11.3-2.6 4.2 0 8 .9 11.2 2.6 3.2 1.6 5.7 4 7.4 7.2 1.8 3.1 2.7 6.8 2.7 11.1s-1 8-2.7 11.1a18.1 18.1 0 0 1-7.4 7.3c-3.2 1.7-7 2.6-11.2 2.6zm0-9.4c6 0 9-3.9 9-11.6 0-3.9-.8-6.8-2.4-8.7a8.1 8.1 0 0 0-6.6-2.8c-6 0-9 3.8-9 11.5s3 11.6 9 11.6zm46 9.4c-4.2 0-8-.9-11.1-2.6A18 18 0 0 1 423 71c-1.8-3.1-2.6-6.8-2.6-11.1s.8-8 2.6-11.1c1.7-3.1 4.2-5.6 7.5-7.2 3.2-1.7 7-2.6 11.2-2.6 4.2 0 8 .9 11.2 2.6 3.2 1.6 5.7 4 7.5 7.2 1.7 3.1 2.6 6.8 2.6 11.1s-.9 8-2.6 11.1a18.1 18.1 0 0 1-7.5 7.3c-3.2 1.7-7 2.6-11.2 2.6zm0-9.4c6 0 9-3.9 9-11.6 0-3.9-.7-6.8-2.2-8.7a8.1 8.1 0 0 0-6.7-2.8c-6 0-9 3.8-9 11.5s3 11.6 9 11.6zm70.3 8.7h-15.2l-15.4-18v18h-12.3V22.6h12.3v34.7l14.9-17.1H511l-16.9 19.1z" />
	<path fill="#ff4785" d="M3.2 94.4 0 9.8a5.1 5.1 0 0 1 4.8-5.3l72-4.5a5.1 5.1 0 0 1 5.4 5.1v92.2a5.1 5.1 0 0 1-5.4 5l-68.7-3a5.1 5.1 0 0 1-5-5z" />
	<path fill="#fff" d="M60.7 12.6 61.2.8 71 0l.4 12.2a.8.8 0 0 1-1.3.6l-3.8-3-4.5 3.4a.8.8 0 0 1-1.2-.6zM48 38.6c0 2 13.5 1 15.3-.4 0-13.6-7.4-20.8-20.8-20.8s-20.9 7.3-20.9 18.2c0 19 25.7 19.4 25.7 29.8 0 2.9-1.4 4.6-4.6 4.6-4 0-5.7-2-5.5-9.2 0-1.5-15.6-2-16 0C20 78 30.8 83 43 83c12 0 21.2-6.3 21.2-17.8 0-20.4-26-19.8-26-30 0-4 3-4.6 4.8-4.6 2 0 5.3.4 5 8z" mask="url(#b)" />
</svg>
